<mxfile host="app.diagrams.net" modified="2024-02-05T22:03:17.584Z" agent="Mozilla/5.0 (Windows NT 10.0; Win64; x64) AppleWebKit/537.36 (KHTML, like Gecko) Chrome/121.0.0.0 Safari/537.36" etag="dWzqa8t-RWz7ntguuQ19" version="23.1.1" type="device">
  <diagram name="Page-1" id="Hy_if_nrzkLvagapNNUs">
    <mxGraphModel dx="1147" dy="627" grid="1" gridSize="10" guides="1" tooltips="1" connect="1" arrows="1" fold="1" page="1" pageScale="1" pageWidth="850" pageHeight="1100" math="0" shadow="0">
      <root>
        <mxCell id="0" />
        <mxCell id="1" parent="0" />
        <mxCell id="Zn3K1qyNsciapm5Skxg9-2" value="" style="shape=umlLifeline;perimeter=lifelinePerimeter;whiteSpace=wrap;html=1;container=1;dropTarget=0;collapsible=0;recursiveResize=0;outlineConnect=0;portConstraint=eastwest;newEdgeStyle={&quot;curved&quot;:0,&quot;rounded&quot;:0};participant=umlActor;" vertex="1" parent="1">
          <mxGeometry x="110" y="100" width="20" height="610" as="geometry" />
        </mxCell>
        <mxCell id="Zn3K1qyNsciapm5Skxg9-3" value="" style="html=1;points=[[0,0,0,0,5],[0,1,0,0,-5],[1,0,0,0,5],[1,1,0,0,-5]];perimeter=orthogonalPerimeter;outlineConnect=0;targetShapes=umlLifeline;portConstraint=eastwest;newEdgeStyle={&quot;curved&quot;:0,&quot;rounded&quot;:0};" vertex="1" parent="Zn3K1qyNsciapm5Skxg9-2">
          <mxGeometry x="5" y="60" width="10" height="530" as="geometry" />
        </mxCell>
        <mxCell id="Zn3K1qyNsciapm5Skxg9-4" value="UI" style="shape=umlLifeline;perimeter=lifelinePerimeter;whiteSpace=wrap;html=1;container=1;dropTarget=0;collapsible=0;recursiveResize=0;outlineConnect=0;portConstraint=eastwest;newEdgeStyle={&quot;curved&quot;:0,&quot;rounded&quot;:0};" vertex="1" parent="1">
          <mxGeometry x="230" y="100" width="100" height="610" as="geometry" />
        </mxCell>
        <mxCell id="Zn3K1qyNsciapm5Skxg9-9" value="" style="html=1;points=[[0,0,0,0,5],[0,1,0,0,-5],[1,0,0,0,5],[1,1,0,0,-5]];perimeter=orthogonalPerimeter;outlineConnect=0;targetShapes=umlLifeline;portConstraint=eastwest;newEdgeStyle={&quot;curved&quot;:0,&quot;rounded&quot;:0};" vertex="1" parent="Zn3K1qyNsciapm5Skxg9-4">
          <mxGeometry x="45" y="60" width="10" height="530" as="geometry" />
        </mxCell>
        <mxCell id="Zn3K1qyNsciapm5Skxg9-6" value="login&lt;br&gt;controller" style="shape=umlLifeline;perimeter=lifelinePerimeter;whiteSpace=wrap;html=1;container=1;dropTarget=0;collapsible=0;recursiveResize=0;outlineConnect=0;portConstraint=eastwest;newEdgeStyle={&quot;curved&quot;:0,&quot;rounded&quot;:0};" vertex="1" parent="1">
          <mxGeometry x="388" y="100" width="100" height="610" as="geometry" />
        </mxCell>
        <mxCell id="Zn3K1qyNsciapm5Skxg9-10" value="" style="html=1;points=[[0,0,0,0,5],[0,1,0,0,-5],[1,0,0,0,5],[1,1,0,0,-5]];perimeter=orthogonalPerimeter;outlineConnect=0;targetShapes=umlLifeline;portConstraint=eastwest;newEdgeStyle={&quot;curved&quot;:0,&quot;rounded&quot;:0};" vertex="1" parent="Zn3K1qyNsciapm5Skxg9-6">
          <mxGeometry x="45" y="58" width="10" height="532" as="geometry" />
        </mxCell>
        <mxCell id="Zn3K1qyNsciapm5Skxg9-7" value="login input&lt;br&gt;validation" style="shape=umlLifeline;perimeter=lifelinePerimeter;whiteSpace=wrap;html=1;container=1;dropTarget=0;collapsible=0;recursiveResize=0;outlineConnect=0;portConstraint=eastwest;newEdgeStyle={&quot;curved&quot;:0,&quot;rounded&quot;:0};" vertex="1" parent="1">
          <mxGeometry x="550" y="100" width="100" height="270" as="geometry" />
        </mxCell>
        <mxCell id="Zn3K1qyNsciapm5Skxg9-11" value="" style="html=1;points=[[0,0,0,0,5],[0,1,0,0,-5],[1,0,0,0,5],[1,1,0,0,-5]];perimeter=orthogonalPerimeter;outlineConnect=0;targetShapes=umlLifeline;portConstraint=eastwest;newEdgeStyle={&quot;curved&quot;:0,&quot;rounded&quot;:0};" vertex="1" parent="Zn3K1qyNsciapm5Skxg9-7">
          <mxGeometry x="45" y="138" width="10" height="112" as="geometry" />
        </mxCell>
        <mxCell id="Zn3K1qyNsciapm5Skxg9-8" value="DataBase" style="shape=umlLifeline;perimeter=lifelinePerimeter;whiteSpace=wrap;html=1;container=1;dropTarget=0;collapsible=0;recursiveResize=0;outlineConnect=0;portConstraint=eastwest;newEdgeStyle={&quot;curved&quot;:0,&quot;rounded&quot;:0};" vertex="1" parent="1">
          <mxGeometry x="700" y="100" width="100" height="440" as="geometry" />
        </mxCell>
        <mxCell id="Zn3K1qyNsciapm5Skxg9-12" value="" style="html=1;points=[[0,0,0,0,5],[0,1,0,0,-5],[1,0,0,0,5],[1,1,0,0,-5]];perimeter=orthogonalPerimeter;outlineConnect=0;targetShapes=umlLifeline;portConstraint=eastwest;newEdgeStyle={&quot;curved&quot;:0,&quot;rounded&quot;:0};" vertex="1" parent="Zn3K1qyNsciapm5Skxg9-8">
          <mxGeometry x="46" y="58" width="10" height="372" as="geometry" />
        </mxCell>
        <mxCell id="Zn3K1qyNsciapm5Skxg9-13" value="login()" style="html=1;verticalAlign=bottom;endArrow=block;curved=0;rounded=0;" edge="1" parent="1" source="Zn3K1qyNsciapm5Skxg9-3">
          <mxGeometry width="80" relative="1" as="geometry">
            <mxPoint x="130" y="190" as="sourcePoint" />
            <mxPoint x="270" y="190" as="targetPoint" />
          </mxGeometry>
        </mxCell>
        <mxCell id="Zn3K1qyNsciapm5Skxg9-14" value="login page&amp;nbsp;" style="endArrow=open;endSize=12;dashed=1;html=1;rounded=0;" edge="1" parent="1" source="Zn3K1qyNsciapm5Skxg9-4">
          <mxGeometry x="-0.0036" width="160" relative="1" as="geometry">
            <mxPoint x="410" y="250" as="sourcePoint" />
            <mxPoint x="130" y="240" as="targetPoint" />
            <mxPoint as="offset" />
          </mxGeometry>
        </mxCell>
        <mxCell id="Zn3K1qyNsciapm5Skxg9-15" value="user credentials" style="html=1;verticalAlign=bottom;endArrow=block;curved=0;rounded=0;" edge="1" parent="1" source="Zn3K1qyNsciapm5Skxg9-3">
          <mxGeometry width="80" relative="1" as="geometry">
            <mxPoint x="127" y="275" as="sourcePoint" />
            <mxPoint x="272" y="275" as="targetPoint" />
          </mxGeometry>
        </mxCell>
        <mxCell id="Zn3K1qyNsciapm5Skxg9-16" value="login(userCredentials)" style="html=1;verticalAlign=bottom;endArrow=block;curved=0;rounded=0;" edge="1" parent="1" source="Zn3K1qyNsciapm5Skxg9-9">
          <mxGeometry width="80" relative="1" as="geometry">
            <mxPoint x="285" y="285" as="sourcePoint" />
            <mxPoint x="430" y="285" as="targetPoint" />
          </mxGeometry>
        </mxCell>
        <mxCell id="Zn3K1qyNsciapm5Skxg9-17" value="userValidation()" style="html=1;verticalAlign=bottom;endArrow=block;curved=0;rounded=0;" edge="1" parent="1">
          <mxGeometry width="80" relative="1" as="geometry">
            <mxPoint x="443" y="301" as="sourcePoint" />
            <mxPoint x="591" y="301" as="targetPoint" />
          </mxGeometry>
        </mxCell>
        <mxCell id="Zn3K1qyNsciapm5Skxg9-18" value="validationResult" style="endArrow=open;endSize=12;dashed=1;html=1;rounded=0;" edge="1" parent="1">
          <mxGeometry x="-0.0019" width="160" relative="1" as="geometry">
            <mxPoint x="590" y="340" as="sourcePoint" />
            <mxPoint x="440" y="340" as="targetPoint" />
            <mxPoint as="offset" />
          </mxGeometry>
        </mxCell>
        <mxCell id="Zn3K1qyNsciapm5Skxg9-19" value="&lt;font style=&quot;font-size: 10px;&quot;&gt;Alt&lt;/font&gt;" style="shape=umlFrame;whiteSpace=wrap;html=1;pointerEvents=0;" vertex="1" parent="1">
          <mxGeometry x="240" y="310" width="400" height="120" as="geometry" />
        </mxCell>
        <mxCell id="Zn3K1qyNsciapm5Skxg9-20" value="&lt;font style=&quot;font-size: 10px;&quot;&gt;[validate==true]&lt;/font&gt;" style="text;strokeColor=none;fillColor=none;align=left;verticalAlign=top;spacingLeft=4;spacingRight=4;overflow=hidden;rotatable=0;points=[[0,0.5],[1,0.5]];portConstraint=eastwest;whiteSpace=wrap;html=1;" vertex="1" parent="1">
          <mxGeometry x="288" y="334" width="100" height="26" as="geometry" />
        </mxCell>
        <mxCell id="Zn3K1qyNsciapm5Skxg9-21" value="" style="endArrow=none;dashed=1;html=1;rounded=0;exitX=-0.008;exitY=0.547;exitDx=0;exitDy=0;exitPerimeter=0;entryX=1.005;entryY=0.545;entryDx=0;entryDy=0;entryPerimeter=0;" edge="1" parent="1" source="Zn3K1qyNsciapm5Skxg9-19" target="Zn3K1qyNsciapm5Skxg9-19">
          <mxGeometry width="50" height="50" relative="1" as="geometry">
            <mxPoint x="410" y="380" as="sourcePoint" />
            <mxPoint x="460" y="330" as="targetPoint" />
          </mxGeometry>
        </mxCell>
        <mxCell id="Zn3K1qyNsciapm5Skxg9-22" value="&lt;font style=&quot;font-size: 10px;&quot;&gt;[else]&lt;br&gt;&lt;/font&gt;" style="text;strokeColor=none;fillColor=none;align=left;verticalAlign=top;spacingLeft=4;spacingRight=4;overflow=hidden;rotatable=0;points=[[0,0.5],[1,0.5]];portConstraint=eastwest;whiteSpace=wrap;html=1;" vertex="1" parent="1">
          <mxGeometry x="288" y="372" width="100" height="26" as="geometry" />
        </mxCell>
        <mxCell id="Zn3K1qyNsciapm5Skxg9-23" value="invalidCredentials" style="endArrow=open;endSize=12;dashed=1;html=1;rounded=0;" edge="1" parent="1" source="Zn3K1qyNsciapm5Skxg9-10">
          <mxGeometry x="-0.0042" width="160" relative="1" as="geometry">
            <mxPoint x="430" y="410" as="sourcePoint" />
            <mxPoint x="290" y="410" as="targetPoint" />
            <mxPoint as="offset" />
          </mxGeometry>
        </mxCell>
        <mxCell id="Zn3K1qyNsciapm5Skxg9-24" value="getUser" style="html=1;verticalAlign=bottom;endArrow=block;curved=0;rounded=0;" edge="1" parent="1" target="Zn3K1qyNsciapm5Skxg9-8">
          <mxGeometry width="80" relative="1" as="geometry">
            <mxPoint x="445" y="366" as="sourcePoint" />
            <mxPoint x="593" y="366" as="targetPoint" />
          </mxGeometry>
        </mxCell>
        <mxCell id="Zn3K1qyNsciapm5Skxg9-25" value="user" style="endArrow=open;endSize=12;dashed=1;html=1;rounded=0;" edge="1" parent="1">
          <mxGeometry x="-0.0019" width="160" relative="1" as="geometry">
            <mxPoint x="746" y="515" as="sourcePoint" />
            <mxPoint x="450" y="515" as="targetPoint" />
            <mxPoint as="offset" />
          </mxGeometry>
        </mxCell>
        <mxCell id="Zn3K1qyNsciapm5Skxg9-26" value="Token Generator" style="shape=umlLifeline;perimeter=lifelinePerimeter;whiteSpace=wrap;html=1;container=1;dropTarget=0;collapsible=0;recursiveResize=0;outlineConnect=0;portConstraint=eastwest;newEdgeStyle={&quot;curved&quot;:0,&quot;rounded&quot;:0};" vertex="1" parent="1">
          <mxGeometry x="870" y="100" width="100" height="610" as="geometry" />
        </mxCell>
        <mxCell id="Zn3K1qyNsciapm5Skxg9-27" value="" style="html=1;points=[[0,0,0,0,5],[0,1,0,0,-5],[1,0,0,0,5],[1,1,0,0,-5]];perimeter=orthogonalPerimeter;outlineConnect=0;targetShapes=umlLifeline;portConstraint=eastwest;newEdgeStyle={&quot;curved&quot;:0,&quot;rounded&quot;:0};" vertex="1" parent="Zn3K1qyNsciapm5Skxg9-26">
          <mxGeometry x="45" y="428" width="10" height="140" as="geometry" />
        </mxCell>
        <mxCell id="Zn3K1qyNsciapm5Skxg9-28" value="getUserToken()" style="html=1;verticalAlign=bottom;endArrow=block;curved=0;rounded=0;" edge="1" parent="1">
          <mxGeometry width="80" relative="1" as="geometry">
            <mxPoint x="443" y="601" as="sourcePoint" />
            <mxPoint x="900" y="601" as="targetPoint" />
          </mxGeometry>
        </mxCell>
        <mxCell id="Zn3K1qyNsciapm5Skxg9-29" value="returnUserToken" style="endArrow=open;endSize=12;dashed=1;html=1;rounded=0;" edge="1" parent="1">
          <mxGeometry x="-0.0019" width="160" relative="1" as="geometry">
            <mxPoint x="916" y="641" as="sourcePoint" />
            <mxPoint x="437.6666666666665" y="641" as="targetPoint" />
            <mxPoint as="offset" />
          </mxGeometry>
        </mxCell>
        <mxCell id="Zn3K1qyNsciapm5Skxg9-30" value="&lt;font style=&quot;font-size: 10px;&quot;&gt;Alt&lt;/font&gt;" style="shape=umlFrame;whiteSpace=wrap;html=1;pointerEvents=0;" vertex="1" parent="1">
          <mxGeometry x="260" y="460" width="530" height="120" as="geometry" />
        </mxCell>
        <mxCell id="Zn3K1qyNsciapm5Skxg9-32" value="" style="endArrow=none;dashed=1;html=1;rounded=0;exitX=-0.008;exitY=0.547;exitDx=0;exitDy=0;exitPerimeter=0;entryX=1;entryY=0.583;entryDx=0;entryDy=0;entryPerimeter=0;" edge="1" parent="1" target="Zn3K1qyNsciapm5Skxg9-30">
          <mxGeometry width="50" height="50" relative="1" as="geometry">
            <mxPoint x="260" y="531" as="sourcePoint" />
            <mxPoint x="665" y="530" as="targetPoint" />
          </mxGeometry>
        </mxCell>
        <mxCell id="Zn3K1qyNsciapm5Skxg9-33" value="&lt;font style=&quot;font-size: 10px;&quot;&gt;[credentials==userInfoinDB]&lt;/font&gt;" style="text;strokeColor=none;fillColor=none;align=left;verticalAlign=top;spacingLeft=4;spacingRight=4;overflow=hidden;rotatable=0;points=[[0,0.5],[1,0.5]];portConstraint=eastwest;whiteSpace=wrap;html=1;" vertex="1" parent="1">
          <mxGeometry x="283" y="490" width="137" height="26" as="geometry" />
        </mxCell>
        <mxCell id="Zn3K1qyNsciapm5Skxg9-34" value="&lt;font style=&quot;font-size: 10px;&quot;&gt;[else]&lt;br&gt;&lt;/font&gt;" style="text;strokeColor=none;fillColor=none;align=left;verticalAlign=top;spacingLeft=4;spacingRight=4;overflow=hidden;rotatable=0;points=[[0,0.5],[1,0.5]];portConstraint=eastwest;whiteSpace=wrap;html=1;" vertex="1" parent="1">
          <mxGeometry x="283" y="524" width="100" height="26" as="geometry" />
        </mxCell>
        <mxCell id="Zn3K1qyNsciapm5Skxg9-35" value="invalidCredentials" style="endArrow=open;endSize=12;dashed=1;html=1;rounded=0;" edge="1" parent="1">
          <mxGeometry x="-0.0042" width="160" relative="1" as="geometry">
            <mxPoint x="431" y="570" as="sourcePoint" />
            <mxPoint x="288" y="570" as="targetPoint" />
            <mxPoint as="offset" />
          </mxGeometry>
        </mxCell>
        <mxCell id="Zn3K1qyNsciapm5Skxg9-36" value="login successful" style="endArrow=open;endSize=12;dashed=1;html=1;rounded=0;" edge="1" parent="1">
          <mxGeometry x="-0.0042" width="160" relative="1" as="geometry">
            <mxPoint x="431" y="660" as="sourcePoint" />
            <mxPoint x="288" y="660" as="targetPoint" />
            <mxPoint as="offset" />
          </mxGeometry>
        </mxCell>
      </root>
    </mxGraphModel>
  </diagram>
</mxfile>
